<svg width="22" height="28" viewBox="0 0 22 28" fill="none" xmlns="http://www.w3.org/2000/svg">
<path d="M19.9932 16.0788V2.2914C19.9932 0.988408 19.1193 0.0783691 17.868 0.0783691C17.2217 0.0783691 16.6567 0.315904 16.1888 0.784419C14.4701 2.50498 14.4753 7.09889 14.4798 11.152L14.4803 11.7231C14.4803 12.7133 14.7331 13.4773 15.2317 13.9942C15.7039 14.4837 16.3692 14.7319 17.209 14.7319C17.3521 14.7319 17.8585 14.7322 18.3458 14.7326C18.4679 14.7327 18.5887 14.7327 18.7024 14.7328V16.0788C17.8636 16.291 17.2409 17.0521 17.2409 17.9559V26.0234C17.2409 27.0911 18.1095 27.9597 19.1771 27.9597H19.5185C20.5862 27.9597 21.4547 27.0911 21.4547 26.0234V17.9559C21.4547 17.0521 20.8321 16.2911 19.9932 16.0788ZM18.3466 13.4418C17.859 13.4414 17.3522 13.4411 17.209 13.4411C15.9453 13.4411 15.7711 12.6154 15.7711 11.7231L15.7706 11.1506C15.7668 7.72714 15.7616 3.0386 17.102 1.69666C17.3251 1.47323 17.5686 1.36917 17.868 1.36917C18.4061 1.36917 18.7024 1.6967 18.7024 2.2914V13.442C18.5891 13.4419 18.4684 13.4419 18.3466 13.4418ZM20.1639 26.0235C20.1639 26.3794 19.8743 26.6689 19.5185 26.6689H19.1771C18.8212 26.6689 18.5317 26.3793 18.5317 26.0235V17.956C18.5317 17.6001 18.8212 17.3106 19.1771 17.3106H19.5185C19.8744 17.3106 20.1639 17.6001 20.1639 17.956V26.0235Z" />
<path d="M8.30614 0.655163C8.27193 0.330934 7.99762 0.0783053 7.66434 0.0783053C7.30788 0.0783053 7.01895 0.367261 7.01895 0.723692V0.742335C7.01895 0.789439 7.02413 0.836416 7.03433 0.882368C7.15716 1.43505 7.29505 2.00458 7.441 2.60754C7.94348 4.68334 8.51304 7.03609 8.51304 9.06495C8.51304 10.3777 7.76737 11.5642 6.61423 12.0872C6.31207 12.2237 6.04035 12.3266 5.80029 12.396V0.68567C5.80029 0.329207 5.51133 0.0402832 5.1549 0.0402832C4.79844 0.0402832 4.50952 0.329239 4.50952 0.68567V12.393C4.29961 12.3341 4.04462 12.2443 3.74341 12.1072C2.58471 11.5776 1.836 10.3859 1.836 9.07119C1.836 7.08568 2.38533 4.7764 2.86993 2.73893C3.02614 2.08226 3.17366 1.46201 3.30304 0.85912C3.37784 0.51062 3.15594 0.167461 2.80741 0.0926635C2.4592 0.0180261 2.11575 0.239764 2.04095 0.588264C1.91454 1.17714 1.76866 1.79071 1.61414 2.44023C1.11307 4.54673 0.545166 6.9343 0.545166 9.07119C0.545166 10.8896 1.5899 12.5421 3.20765 13.2816C3.66347 13.4891 4.10797 13.6378 4.50945 13.7197V16.0839C3.68054 16.3029 3.06755 17.0591 3.06755 17.9559V26.0234C3.06755 27.091 3.93612 27.9596 5.00374 27.9596H5.34518C6.4128 27.9596 7.28137 27.091 7.28137 26.0234V17.9559C7.28137 17.045 6.64893 16.2795 5.80026 16.0742V13.7254C6.19516 13.6457 6.63569 13.4939 7.14651 13.2632C8.76075 12.531 9.80378 10.883 9.80378 9.06498C9.80378 6.88208 9.21497 4.44984 8.69551 2.30387C8.55577 1.72637 8.42347 1.17986 8.30614 0.655163ZM5.99063 17.9559V26.0234C5.99063 26.3793 5.70109 26.6688 5.34524 26.6688H5.00381C4.64792 26.6688 4.35842 26.3792 4.35842 26.0234V17.9559C4.35842 17.6 4.64792 17.3105 5.00381 17.3105H5.34524C5.70109 17.3105 5.99063 17.6 5.99063 17.9559Z"/>
</svg>
