<svg width="34" height="30" viewBox="0 0 34 30" fill="none" xmlns="http://www.w3.org/2000/svg">
<path d="M0.680002 0.0800781C0.454568 0.0800781 0.238367 0.169631 0.078961 0.329037C-0.0804449 0.488443 -0.169998 0.704644 -0.169998 0.930078V25.0701C-0.169998 25.2955 -0.0804449 25.5117 0.078961 25.6711C0.238367 25.8305 0.454568 25.9201 0.680002 25.9201H23.4192C23.122 25.5291 22.8256 25.1377 22.527 24.7471C22.1558 24.1993 21.6165 23.7305 21.4584 23.0648C19.2722 23.9671 16.7603 24.0508 14.517 23.3017C14.4677 23.2858 14.4194 23.266 14.3704 23.2494C14.1131 23.501 13.8356 23.9396 13.7918 24.2201H10.5594C10.8021 23.3976 10.2867 22.1134 10.7743 21.2764C10.813 21.2662 10.8599 21.2005 10.8814 21.1329C10.8263 21.0812 10.7705 21.0309 10.7168 20.9782C10.2388 21.1237 10.0477 21.4838 9.7818 21.7996C9.92698 22.4878 8.8791 22.3249 8.98484 23.027C9.71482 23.5931 8.31096 23.1617 7.89344 23.2069C7.45042 23.2116 6.15434 22.7479 6.60416 23.6965C6.53378 23.9569 6.59872 24.1167 6.72826 24.2201H6.5297C6.49876 23.9222 5.93776 23.878 5.72152 23.7318C5.35738 23.6434 4.92252 23.5992 4.54546 23.4313C4.44856 23.7006 3.57408 24.0086 3.38266 24.2201H1.53V11.7995C1.79078 11.9743 2.37558 11.9049 1.57862 11.5275H1.53V7.61278C1.6847 7.53458 1.7952 7.50976 1.7884 7.64066C2.17158 7.51146 2.33852 6.57884 3.00152 6.96066C3.41496 7.02152 4.09904 7.66242 3.7553 7.74266C4.02322 8.39682 4.21328 7.97556 4.54206 8.75518C4.31698 9.82142 5.17888 10.6116 5.65182 11.2912C6.21826 11.5265 6.44232 12.2589 7.36304 12.2874C7.48816 12.3969 7.64864 12.4962 7.81592 12.5914C7.86182 12.2398 7.92676 11.891 8.0087 11.5462C7.9866 11.5411 7.96518 11.5381 7.94138 11.5303C7.05568 12.3473 6.87412 10.9329 7.73908 10.8775C7.79688 10.8737 7.8591 10.8768 7.92608 10.886C8.02638 10.8741 8.10968 10.886 8.18006 10.9108C8.46409 9.97959 8.88496 9.09579 9.42888 8.28836C9.72097 7.8525 10.0488 7.44172 10.4091 7.06028C10.2303 6.76108 10.0473 6.59414 9.83144 6.9848C9.81512 6.4051 8.24772 5.79752 9.401 6.35376C10.0059 6.87498 10.2041 6.26332 10.2996 5.8458C10.8181 5.3052 9.7682 5.12058 9.95962 4.76732C9.64138 4.2903 9.17014 3.80172 8.68598 3.50626C7.7469 3.61506 7.41778 3.41684 8.6734 3.41616C8.78662 2.82966 8.97464 2.41418 9.10418 1.9205C8.96818 1.8814 8.82606 1.88752 8.68598 1.88718C8.0852 1.8066 7.72854 2.03882 7.74078 2.49748C7.2896 2.46144 7.69488 1.69236 6.99924 1.9273C5.94456 1.91064 7.21956 2.26696 7.12164 2.3183C7.00094 2.58894 6.24104 2.4203 6.33046 2.69468C5.9823 2.05072 5.82386 3.0017 5.55288 2.35026C5.38968 2.19386 6.23628 2.50462 6.0435 1.93444C5.61714 1.77124 5.46448 2.05684 5.1323 2.17346C4.14086 2.72222 5.30536 3.23834 5.8089 3.42126C6.56778 3.21896 6.5671 2.96328 7.09478 3.24446C7.68638 3.57256 6.4974 3.34204 6.53378 3.84694C6.46578 3.53312 6.38078 3.34374 6.01358 3.74596C5.52398 3.83436 5.30536 3.1615 4.93986 3.20876C4.10686 3.09554 4.41796 4.96894 5.10408 4.3311C5.51922 5.04952 4.57368 4.51946 4.29318 4.43922C3.65976 5.14676 2.97738 4.42086 2.22122 4.39162C1.97914 4.23046 1.74182 4.22842 1.53 4.31036V1.78008H10.4458C9.81002 1.79742 9.24222 1.8814 9.47342 2.3387C9.43602 3.22066 10.5771 2.52026 10.7413 3.3179C11.2152 3.87516 10.4594 5.06006 11.2792 4.85198C10.9776 5.21884 11.0153 5.8033 11.2506 6.264C12.121 5.53349 13.1081 4.95466 14.1705 4.55176C14.1892 4.44704 14.1746 4.32668 14.112 4.18456C14.0056 3.6511 14.5007 3.48076 14.3273 2.88916C14.5605 2.44376 14.3796 1.97252 13.9798 1.78008H32.47V4.1866C32.4173 4.16399 32.3631 4.14491 32.3078 4.12948C31.8288 4.56366 32.216 4.6048 32.47 4.50722V4.88666C31.9036 4.56808 31.2814 4.53306 30.6772 4.66566C30.4028 4.18864 29.4314 4.19986 29.1118 3.77044C28.5488 3.09588 29.2835 3.29716 29.7748 3.24514C29.6354 2.82354 28.799 2.62362 28.4458 2.69332C27.8076 3.04284 28.781 3.35632 28.6827 3.82552C28.6827 4.16654 28.2669 4.16892 27.9041 4.15022C28.0507 3.78914 27.2095 3.3451 26.876 3.63886C26.2446 3.44778 26.0039 3.55998 26.4204 2.90242C26.2749 2.39684 25.6734 2.38732 25.4038 2.03644C25.0594 2.76676 24.4851 2.54542 23.8697 2.99014C23.6232 3.35054 23.1098 3.67422 23.0843 3.91222C22.7028 4.0914 22.321 3.17714 22.0534 3.98702C21.8107 4.67246 22.067 5.00464 21.248 4.44364C20.4003 3.54026 22.9507 2.76642 22.0028 2.38188C21.216 2.61138 20.7431 3.16592 20.5867 3.9537C20.502 4.13288 20.5404 4.25766 20.6298 4.35864C23.6164 5.24944 26.0879 7.6512 27.0926 10.5976C27.1082 10.4202 27.1378 10.2495 27.1973 10.1247C27.4485 9.93294 27.2493 10.8608 27.7685 10.3331C27.386 11.1542 28.73 10.4419 28.9119 10.1029C28.6453 9.43382 29.8707 9.11864 29.8421 8.9925C29.391 8.51922 29.6473 8.99012 29.1496 9.09858C28.9847 8.87894 29.4658 7.67466 28.8255 7.78516C27.8695 7.539 29.6388 6.83486 30.1165 7.09394C30.3341 6.28882 30.6469 6.93006 30.1094 7.30032C29.9047 8.01466 30.0026 8.9891 30.6048 8.03438C30.8754 7.77088 30.8081 7.08408 31.1603 6.9644C31.6336 6.74136 32.4782 6.56694 32.4561 5.87742C32.4608 5.87606 32.4652 5.8764 32.47 5.87538V24.2201H31.1239C31.4157 23.8162 31.8016 23.1253 31.3929 22.8747C30.7771 22.7683 30.3171 22.0257 29.5729 22.0567C29.2369 21.6697 28.4634 21.4739 28.2554 21.3984C28.0473 21.3229 27.6862 21.7592 27.3163 21.5664C27.205 21.5484 27.0913 21.5505 26.9807 21.5725C28.0939 23.0175 29.1965 24.4703 30.3032 25.9201H33.32C33.5454 25.9201 33.7616 25.8305 33.921 25.6711C34.0804 25.5117 34.17 25.2955 34.17 25.0701V0.930078C34.17 0.704644 34.0804 0.488443 33.921 0.329037C33.7616 0.169631 33.5454 0.0800781 33.32 0.0800781H0.680002ZM17.2346 1.88888C16.6872 2.1585 17.6579 3.23188 17.6848 2.20712C17.7851 2.35672 18.4579 2.50768 18.2379 2.02522C17.749 1.73724 17.8231 2.0684 17.2343 1.88922L17.2346 1.88888ZM25.0821 1.88956C24.4916 2.1772 25.5989 2.18264 25.0821 1.88956V1.88956ZM6.32094 1.98714C5.87894 2.31558 6.96966 2.64062 6.37874 2.00448L6.32094 1.98714ZM9.94024 2.18196C9.8311 2.2503 10.0507 2.28804 9.94024 2.18196V2.18196ZM5.6712 2.6022C5.644 2.60662 5.72322 2.66238 5.6712 2.6022V2.6022ZM7.18522 2.74228C7.14442 2.95988 7.718 2.83476 7.18522 2.74228V2.74228ZM7.93152 2.80348C8.1175 2.92928 8.43812 2.77118 7.93152 2.80348V2.80348ZM6.44402 2.82592C6.40186 2.97858 6.77348 2.85992 6.44402 2.82592V2.82592ZM7.4987 3.30464C7.33482 3.40834 7.8319 3.38148 7.4987 3.30464V3.30464ZM7.73364 3.8347C7.53304 4.47458 8.44662 5.3409 7.73772 4.6116C7.5429 4.31988 7.44158 4.0404 7.73364 3.8347ZM6.54432 3.8993C6.83638 4.3872 7.2811 4.51742 6.9088 4.68538C6.66162 4.5657 6.6045 4.19306 6.54432 3.8993ZM11.1272 4.39128C11.0163 4.39808 11.1683 4.41882 11.1272 4.39128V4.39128ZM4.23334 4.5453C4.18064 4.54768 4.19526 4.69966 4.23334 4.5453V4.5453ZM6.8663 4.79486C6.71092 4.78908 6.8425 5.1165 6.8663 4.79486V4.79486ZM8.82062 4.7969C8.69346 5.4259 9.19802 5.38578 9.16402 5.44902C8.74718 5.63262 8.8468 6.38878 8.52788 5.8118C8.3266 5.71796 8.63124 4.88768 8.76826 4.81492L8.82062 4.7969ZM6.77144 4.79758C6.76838 4.9448 6.81598 4.80778 6.77144 4.79758V4.79758ZM31.3657 4.85402C31.3065 4.91182 31.3793 4.87714 31.3657 4.85402V4.85402ZM6.79592 4.9363C6.48516 5.1573 7.0278 5.17906 6.79592 4.9363V4.9363ZM17.6004 5.27052C15.7464 5.2834 13.9467 5.8984 12.4726 7.02288C8.70196 9.89418 7.96824 15.307 10.8395 19.0776C13.5272 22.6071 18.4351 23.4585 22.1445 21.1985L22.8531 22.1291C22.7137 22.4534 22.7266 22.7635 22.8888 22.977L28.0296 29.7277C28.3356 30.1293 29.0744 30.0813 29.6796 29.6203C30.2848 29.1596 30.5272 28.4602 30.2216 28.0583L25.0808 21.3076C24.9183 21.0941 24.6228 20.9989 24.2729 21.0472L23.5644 20.117C26.7294 17.142 27.2146 12.1848 24.5273 8.65522C23.0914 6.76992 21.0202 5.64452 18.8367 5.34872C18.427 5.29325 18.0139 5.26712 17.6004 5.27052ZM7.94818 6.12324C8.16068 6.6278 8.98144 6.33166 8.66014 7.01948C9.01782 7.35608 8.60336 8.54268 8.4643 7.53152C7.57418 7.5271 7.14918 6.63902 7.8965 6.17288L7.94818 6.12324ZM8.72372 6.20688C8.29532 6.33574 8.99572 6.43808 8.72372 6.20688V6.20688ZM30.0852 6.8284C30.109 6.8114 30.1682 6.93346 30.0852 6.8284V6.8284ZM17.9428 7.17554C18.9295 7.21315 19.8955 7.46933 20.7712 7.9256C21.6468 8.38186 22.4103 9.02682 23.0064 9.81394C23.5405 10.5122 23.9314 11.3091 24.1568 12.1588C24.3821 13.0086 24.4373 13.8944 24.3194 14.7656C24.2014 15.6367 23.9125 16.476 23.4694 17.2353C23.0262 17.9945 22.4374 18.6587 21.7369 19.1898C21.0386 19.7239 20.2417 20.1149 19.3919 20.3402C18.5422 20.5656 17.6562 20.6208 16.785 20.5029C15.9138 20.3849 15.0745 20.096 14.3153 19.6528C13.556 19.2096 12.8918 18.6208 12.3607 17.9202C11.8266 17.2219 11.4357 16.425 11.2105 15.5753C10.9852 14.7255 10.9299 13.8396 11.0479 12.9685C11.1659 12.0973 11.4548 11.2581 11.898 10.4989C12.3412 9.73964 12.93 9.07544 13.6306 8.54438C14.8646 7.59953 16.3898 7.11537 17.9428 7.17554ZM31.0627 7.52574C30.5289 7.9674 31.7036 7.88648 31.0627 7.52574V7.52574ZM31.6985 7.89362C31.1076 8.18228 32.215 8.18262 31.6985 7.89362V7.89362ZM32.0834 8.02826C31.5564 8.46686 32.6206 8.23634 32.0834 8.02826V8.02826ZM32.0623 8.12346C32.0443 8.1544 32.0916 8.12312 32.0623 8.12346V8.12346ZM32.1127 8.1782C32.0702 8.18364 32.1286 8.20404 32.1127 8.1782V8.1782ZM17.7174 8.53248C16.9742 8.51922 16.2404 8.68548 15.5638 8.984C15.5992 9.02718 15.6499 9.06866 15.724 9.10606C15.044 8.88506 14.8461 9.74424 15.1324 10.1308L15.5924 10.1686L15.9769 9.99924C16.2255 9.74084 16.2874 9.78538 16.3676 9.39404L16.5175 9.41342L16.6365 9.36378L16.9075 9.49774C17.2326 9.6249 17.2479 9.89894 17.1391 9.97918C16.985 10.074 17.1666 10.088 17.1816 10.1468C17.2584 10.1247 17.3033 10.0584 17.3516 10.023L17.4386 9.99176C17.7562 9.78334 17.5345 9.71466 17.3138 9.43348L17.4308 9.4634C17.6018 9.6572 17.7024 9.8765 17.8038 10.1094C17.8153 10.1186 17.8259 10.1305 17.8391 10.1346C17.916 10.1601 18.0244 10.1516 18.1172 10.1261C18.209 10.1009 18.2152 9.9258 18.1995 9.75818C18.3304 10.3552 19.6143 10.1777 18.8503 10.5419C18.41 10.5517 17.7103 10.3103 17.5814 10.6153C17.2965 10.4861 17.151 10.4015 17.0932 10.3352C16.9177 10.2692 16.4128 10.0781 16.3948 10.0781C16.3734 10.0781 15.7308 10.1951 15.7308 10.1951L15.2004 10.3964C15.028 10.9519 14.756 10.6548 14.6635 11.0855C14.5911 11.3609 13.9679 11.9559 14.2943 12.4245C14.5857 13.7797 16.2751 12.8773 16.6688 13.5281C16.4839 13.929 17.3988 14.6916 16.8868 15.3481C17.1282 16.3018 17.7769 17.8961 18.8207 16.5388C19.0961 15.7262 19.6891 15.2869 19.668 14.4808C19.3528 13.6869 21.2082 13.0983 20.466 12.4554C20.2881 12.4765 20.2677 12.5149 20.1266 12.5618C19.8302 12.5506 19.7537 12.3116 19.6527 12.1613C19.5756 12.0517 19.5074 11.936 19.4487 11.8155C19.6374 12.1079 19.8322 12.3561 20.1056 12.5088C20.5785 12.4027 21.1208 12.0528 21.3415 11.7961C21.336 10.7955 22.6811 11.8335 22.6539 12.5856C22.7372 12.7883 22.8429 12.929 22.949 13.0113C22.8736 12.5303 22.73 12.0625 22.5226 11.6221C22.1456 10.7945 21.5417 10.0839 20.808 9.55214C20.7944 9.57322 20.7604 9.57458 20.7672 9.52358C20.668 9.45331 20.5665 9.3863 20.4629 9.32264C20.4741 9.3699 20.4877 9.41784 20.5034 9.46646C20.4588 9.40016 20.4119 9.33284 20.3731 9.2679C19.5721 8.79598 18.6534 8.52534 17.7177 8.53214L17.7174 8.53248ZM28.78 8.57736C29.0265 9.2798 27.9225 10.9077 27.762 9.8391C27.8752 9.31074 28.7813 9.3903 28.78 8.57736ZM8.08248 8.76266C8.07466 8.78816 8.13212 8.75688 8.08248 8.76266V8.76266ZM8.60642 9.00984C8.48674 9.07172 8.70536 9.09212 8.60642 9.00984V9.00984ZM18.8159 9.03228C19.0903 9.26348 19.9322 9.56948 19.041 9.32536C18.5773 9.53718 18.4338 9.40152 18.8159 9.03228ZM16.695 9.44368C16.6352 9.46204 16.6858 9.58614 16.6484 9.62524C16.9034 9.75002 16.7606 9.50726 16.7984 9.46748C16.7467 9.443 16.7147 9.43722 16.695 9.44368ZM20.5822 9.69698C20.6611 9.902 20.7135 10.0329 20.5108 9.77858C20.5276 9.77044 20.5425 9.75902 20.5548 9.74501C20.5671 9.73099 20.5764 9.71466 20.5822 9.69698ZM16.7188 9.72248C16.6189 9.7116 16.5658 9.77858 16.5655 9.87208C16.829 10.0152 16.8018 9.77892 16.8341 9.7609C16.7982 9.74111 16.7594 9.72809 16.7188 9.72248ZM20.79 11.1787C20.9403 11.1848 20.6462 11.3963 20.6965 11.1906C20.7383 11.1814 20.7686 11.1777 20.79 11.1787ZM31.1467 12.5088C30.6571 13.029 31.7302 13.1204 31.1467 12.5088V12.5088ZM31.1127 12.5897C31.1035 12.6244 31.163 12.5843 31.1127 12.5897V12.5897ZM31.1549 12.6642C31.1039 12.6557 31.1596 12.6992 31.1549 12.6642V12.6642ZM31.5109 12.7322C31.0366 13.1449 32.0834 12.9946 31.5109 12.7322V12.7322ZM31.5619 12.8495C31.5551 12.8994 31.5979 12.8433 31.5619 12.8495V12.8495ZM31.4949 12.8675C31.4673 12.8913 31.5262 12.9096 31.4949 12.8675V12.8675ZM27.6199 13.402C27.6284 13.6141 27.6301 13.8259 27.6253 14.0378C28.0153 14.1 28.5039 14.0823 28.5131 14.5138C29.2121 14.544 28.441 15.565 28.4155 14.6198C28.1307 14.5788 27.8402 14.628 27.5849 14.7606C27.5139 15.5025 27.3621 16.2345 27.132 16.9434C27.7032 16.7622 28.286 16.7799 28.63 17.3351C29.5361 17.3317 28.7654 17.9495 29.4076 18.0756C29.6813 17.5166 29.2635 17.587 29.7769 17.1314C30.275 16.4946 29.9489 15.6721 29.4522 15.3243C29.3488 14.9306 28.9371 14.7178 29.1309 14.4492C29.5083 14.9609 30.0431 14.5777 29.5967 14.3009C29.9261 13.9932 31.1032 15.0938 30.4422 14.2472C30.1158 14.1867 29.6674 13.5118 29.5657 13.9463C29.5365 14.3067 28.6372 13.3992 28.3053 13.7705C28.2095 13.436 27.7403 13.6379 27.7137 13.7872C27.8579 13.5628 27.7671 13.4468 27.6199 13.402ZM29.3498 13.6927C28.8626 13.9694 29.7898 13.9599 29.3498 13.6927V13.6927ZM16.6219 13.7165C16.6107 13.7311 16.661 13.8049 16.6219 13.7165V13.7165ZM12.3539 13.7579C12.3438 14.2301 12.3963 14.7014 12.51 15.1598C12.901 14.5675 12.8857 14.0112 12.3539 13.7579ZM29.3247 13.7743C29.2886 13.7824 29.3539 13.7953 29.3247 13.7743V13.7743ZM29.6541 13.8151C29.495 13.9273 29.8129 13.9273 29.6541 13.8151V13.8151ZM29.6541 13.8185C29.5093 13.9225 29.7986 13.9225 29.6541 13.8185V13.8185ZM29.3573 13.848C29.307 13.8419 29.3627 13.8824 29.3573 13.848V13.848ZM27.6226 14.2173C27.6192 14.2989 27.6121 14.3805 27.6066 14.4621C27.7165 14.3383 27.7641 14.2105 27.6226 14.2173ZM19.873 14.5699C19.48 14.7858 20.2936 14.8844 19.9536 14.6311L19.939 14.5947L19.873 14.5699ZM20.3327 14.6304C19.9444 14.8731 19.3419 16.0305 20.1773 16.0669C20.3786 15.8275 20.8889 14.7603 20.3327 14.6304ZM30.8645 15.3675C30.5534 15.9812 31.7679 15.7357 30.8645 15.3675V15.3675ZM20.9549 15.4491C20.4496 15.7881 21.4448 15.7452 20.9549 15.4491V15.4491ZM31.6754 16.8485C31.9631 17.4996 31.009 17.8896 31.0811 18.4941C31.5707 18.7301 31.8233 17.842 32.1681 17.5704C32.5757 17.214 31.8471 17.1086 31.6754 16.8485ZM9.0627 18.8511C9.11846 19.2095 9.28642 19.5563 9.5863 19.662C9.3988 19.4003 9.22406 19.1297 9.0627 18.8511Z" />
</svg>
