<svg width="32" height="33" viewBox="0 0 32 33" fill="none" xmlns="http://www.w3.org/2000/svg">
<path d="M22.4416 10.0476L16.5863 1.22128C16.2958 0.783335 15.6526 0.783335 15.3621 1.22128L9.5068 10.0476C9.18287 10.5358 9.53296 11.1882 10.1189 11.1882H13.5445V15.6361C13.5445 16.978 14.6323 18.0658 15.9742 18.0658C17.3161 18.0658 18.404 16.978 18.404 15.6361V11.1882H21.8295C22.4154 11.1882 22.7655 10.5359 22.4416 10.0476ZM8.88557 22.7837H7.09081C7.00838 22.7837 6.92677 22.7999 6.85062 22.8315C6.77447 22.863 6.70528 22.9092 6.647 22.9675C6.58872 23.0258 6.54249 23.095 6.51096 23.1711C6.47942 23.2473 6.46319 23.3289 6.4632 23.4113V32.0497C6.46321 32.1321 6.44698 32.2137 6.41544 32.2898C6.38391 32.366 6.33768 32.4352 6.2794 32.4935C6.22112 32.5517 6.15193 32.598 6.07578 32.6295C5.99963 32.661 5.91802 32.6773 5.83559 32.6773H4.18918C4.10676 32.6773 4.02515 32.661 3.949 32.6295C3.87285 32.598 3.80366 32.5517 3.74538 32.4935C3.6871 32.4352 3.64087 32.366 3.60933 32.2898C3.5778 32.2137 3.56157 32.1321 3.56158 32.0497V23.4113C3.56159 23.3289 3.54536 23.2473 3.51382 23.1711C3.48229 23.095 3.43606 23.0258 3.37778 22.9675C3.3195 22.9092 3.25031 22.863 3.17416 22.8315C3.09801 22.7999 3.01639 22.7837 2.93397 22.7837H1.07779C0.995365 22.7837 0.91375 22.7675 0.837601 22.736C0.761453 22.7044 0.692262 22.6582 0.633982 22.5999C0.575702 22.5416 0.529473 22.4725 0.497936 22.3963C0.466399 22.3202 0.450171 22.2385 0.45018 22.1561V21.1914C0.450171 21.109 0.466399 21.0274 0.497936 20.9513C0.529473 20.8751 0.575702 20.8059 0.633982 20.7476C0.692262 20.6894 0.761453 20.6431 0.837601 20.6116C0.91375 20.58 0.995365 20.5638 1.07779 20.5638H9.01466C9.39437 20.5638 9.68709 20.8984 9.63669 21.2747L9.50759 22.2394C9.48744 22.3901 9.41326 22.5283 9.29886 22.6284C9.18445 22.7286 9.03759 22.7837 8.88557 22.7837ZM20.7372 26.6118C20.7372 30.5798 18.692 32.9744 15.2659 32.9744C11.8574 32.9744 9.81233 30.6496 9.81233 26.6118C9.81233 22.6614 11.8574 20.2493 15.2659 20.2493C18.692 20.2492 20.7372 22.5565 20.7372 26.6118ZM12.8363 26.6118C12.8363 29.6708 13.6927 30.8594 15.2659 30.8594C16.8916 30.8594 17.7131 29.6708 17.7131 26.6118C17.7131 23.5704 16.8916 22.3818 15.2659 22.3818C13.6753 22.3818 12.8363 23.5703 12.8363 26.6118ZM24.5736 32.6773H22.9098C22.8273 32.6773 22.7457 32.661 22.6696 32.6295C22.5934 32.598 22.5242 32.5517 22.466 32.4935C22.4077 32.4352 22.3615 32.366 22.3299 32.2898C22.2984 32.2137 22.2822 32.1321 22.2822 32.0497V21.1914C22.2822 21.109 22.2984 21.0274 22.3299 20.9513C22.3615 20.8751 22.4077 20.8059 22.466 20.7476C22.5242 20.6894 22.5934 20.6431 22.6696 20.6116C22.7457 20.58 22.8273 20.5638 22.9098 20.5638H26.2325C29.3789 20.5638 31.3017 21.8573 31.3017 24.5142C31.3017 27.3285 29.309 28.657 26.4947 28.657H25.8289C25.7464 28.6569 25.6648 28.6732 25.5887 28.7047C25.5125 28.7363 25.4433 28.7825 25.3851 28.8408C25.3268 28.899 25.2805 28.9682 25.249 29.0444C25.2175 29.1205 25.2012 29.2021 25.2013 29.2846V32.0497C25.2013 32.2161 25.1351 32.3757 25.0174 32.4934C24.8997 32.6111 24.7401 32.6773 24.5736 32.6773ZM26.2501 26.5594C27.5435 26.5594 28.3126 26.0175 28.3126 24.5142C28.3126 23.2382 27.596 22.6264 26.1977 22.6264H25.8289C25.7465 22.6264 25.6649 22.6426 25.5887 22.6742C25.5126 22.7057 25.4434 22.7519 25.3851 22.8102C25.3268 22.8685 25.2806 22.9377 25.2491 23.0138C25.2175 23.09 25.2013 23.1716 25.2013 23.254V25.9318C25.2013 26.0142 25.2175 26.0958 25.2491 26.172C25.2806 26.2481 25.3268 26.3173 25.3851 26.3756C25.4434 26.4339 25.5126 26.4801 25.5887 26.5116C25.6649 26.5432 25.7465 26.5594 25.8289 26.5594H26.2501Z" />
</svg>
