<svg width="28" height="28" viewBox="0 0 28 28" fill="none" xmlns="http://www.w3.org/2000/svg">
<path d="M26.4105 26.7586H19.3911C19.3846 26.7372 19.3771 26.7159 19.3682 26.6949L17.7785 22.9408C18.9353 22.4759 19.9929 21.8156 20.9109 21.0009L21.5828 21.6727L20.8296 22.426C20.5861 22.6695 20.5861 23.0642 20.8296 23.3076C20.9513 23.4293 21.1108 23.4902 21.2703 23.4902C21.4299 23.4902 21.5894 23.4293 21.7111 23.3076L24.0992 20.9196C24.3427 20.6761 24.3427 20.2814 24.0992 20.0379C23.8557 19.7946 23.4611 19.7946 23.2176 20.0379L22.4644 20.7912L21.7944 20.1212C23.376 18.3539 24.3832 16.0626 24.5192 13.5433H25.4131V14.603C25.4131 14.9473 25.6922 15.2264 26.0364 15.2264C26.3807 15.2264 26.6598 14.9473 26.6598 14.603V11.2368C26.6598 10.8925 26.3807 10.6135 26.0364 10.6135C25.6922 10.6135 25.4131 10.8925 25.4131 11.2368V12.2965H24.5145C24.3636 9.81809 23.3697 7.56394 21.8163 5.81744L22.4644 5.16937L23.2176 5.92255C23.3393 6.04426 23.4988 6.10512 23.6584 6.10512C23.8179 6.10512 23.9774 6.04423 24.0992 5.92252C24.3426 5.67907 24.3426 5.2844 24.0992 5.04095L21.7111 2.65293C21.4676 2.40948 21.073 2.40951 20.8295 2.65296C20.586 2.89641 20.586 3.29109 20.8295 3.53454L21.5827 4.28776L20.9355 4.93494C19.1725 3.36068 16.8895 2.35742 14.3795 2.21892V1.32532H15.4392C15.7834 1.32532 16.0626 1.04625 16.0626 0.701967C16.0626 0.357688 15.7834 0.0786133 15.4392 0.0786133H12.0731C11.7288 0.0786133 11.4497 0.357688 11.4497 0.701967C11.4497 1.04625 11.7288 1.32532 12.0731 1.32532H13.1328V2.22202C10.6376 2.37098 8.36911 3.37424 6.61615 4.94296L5.96095 4.28776L6.71417 3.53454C6.95762 3.29109 6.95762 2.89638 6.71417 2.65293C6.47065 2.40948 6.07607 2.40948 5.83256 2.65293L3.44454 5.04095C3.20109 5.2844 3.20109 5.6791 3.44454 5.92255C3.56625 6.04426 3.72582 6.10512 3.88533 6.10512C4.04484 6.10512 4.20441 6.04426 4.32612 5.92255L5.07934 5.16934L5.73643 5.82643C4.18759 7.57168 3.1969 9.82234 3.04625 12.2965H2.09925V11.2368C2.09925 10.8925 1.82017 10.6135 1.47589 10.6135C1.13161 10.6135 0.852539 10.8925 0.852539 11.2368V14.603C0.852539 14.9473 1.13161 15.2263 1.47589 15.2263C1.82017 15.2263 2.09925 14.9473 2.09925 14.603V13.5433H3.04155C3.17733 16.0583 4.18142 18.3461 5.75837 20.1122L5.07937 20.7912L4.32615 20.0379C4.0827 19.7946 3.68799 19.7946 3.44457 20.0379C3.20112 20.2814 3.20109 20.6761 3.44454 20.9196L5.83256 23.3076C5.9543 23.4293 6.1138 23.4902 6.27334 23.4902C6.43285 23.4902 6.59239 23.4293 6.71413 23.3076C6.95759 23.0642 6.95759 22.6695 6.71413 22.426L5.96092 21.6728L6.64081 20.9929C7.60754 21.8527 8.72973 22.541 9.95955 23.01L8.46942 26.7048C8.46226 26.7226 8.45628 26.7406 8.45085 26.7586H1.47589C1.13161 26.7586 0.852539 27.0377 0.852539 27.382C0.852539 27.7262 1.13161 28.0053 1.47589 28.0053H26.4105C26.7548 28.0053 27.0339 27.7262 27.0339 27.382C27.0339 27.0377 26.7548 26.7586 26.4105 26.7586ZM17.2924 21.7928L14.6784 15.6199C14.8828 15.5508 15.0769 15.4591 15.2573 15.3472L20.0283 20.1182C19.2238 20.821 18.3003 21.3908 17.2924 21.7928ZM12.2162 12.957C12.2162 12.0945 12.9179 11.3928 13.7804 11.3928C14.5801 11.3928 15.241 11.9961 15.3332 12.7714C15.3215 12.8191 15.3146 12.8686 15.3146 12.9199C15.3146 12.9788 15.3233 13.0355 15.3386 13.0894C15.2711 13.8901 14.5983 14.5211 13.7804 14.5211C12.9179 14.5211 12.2162 13.8195 12.2162 12.957ZM13.1328 22.4427C12.6174 22.4079 12.1131 22.3324 11.6232 22.2183L13.1328 18.4752V22.4427ZM14.3796 18.1113L16.1017 22.1782C15.5453 22.3183 14.9697 22.4089 14.3796 22.4458V18.1113ZM20.9118 19.2385L16.1458 14.4726C16.3258 14.1926 16.4578 13.8791 16.5293 13.5433H23.2701C23.1371 15.7191 22.2692 17.6993 20.9118 19.2385ZM23.2653 12.2965H16.5122C16.4404 11.9999 16.3217 11.7216 16.164 11.4698L20.9337 6.70011C22.2632 8.21821 23.1182 10.1615 23.2653 12.2965ZM20.053 5.81763L15.2857 10.5849C15.0119 10.4106 14.7064 10.2823 14.3796 10.211V3.46812C16.5461 3.60352 18.5181 4.46745 20.053 5.81763ZM13.1328 3.47119V10.2222C12.8201 10.2963 12.5276 10.4225 12.2648 10.5915L7.49882 5.82563C9.02358 4.48097 10.9811 3.61663 13.1328 3.47119ZM6.61913 6.70913L11.3901 11.4801C11.2356 11.7291 11.1193 12.004 11.0486 12.2965H4.29545C4.44239 10.1658 5.29414 8.22589 6.61913 6.70913ZM4.29075 13.5433H11.0314C11.1021 13.875 11.2317 14.1849 11.4083 14.4622L6.64103 19.2295C5.28822 17.6916 4.42353 15.7148 4.29075 13.5433ZM7.52351 20.1102L12.2932 15.3406C12.4914 15.4647 12.7059 15.5651 12.9331 15.6371L10.426 21.8536C9.35286 21.4477 8.37179 20.8531 7.52351 20.1102ZM11.1521 23.3866C11.7917 23.5478 12.4539 23.6514 13.1328 23.6919V24.6392H12.0731C11.7288 24.6392 11.4497 24.9183 11.4497 25.2625C11.4497 25.6068 11.7288 25.8859 12.0731 25.8859H15.4393C15.7835 25.8859 16.0626 25.6068 16.0626 25.2625C16.0626 24.9183 15.7835 24.6392 15.4393 24.6392H14.3795V23.695C15.141 23.653 15.8814 23.5311 16.5929 23.3381L18.0413 26.7586H9.79211L11.1521 23.3866Z" />
</svg>
