<svg width="37" height="30" viewBox="0 0 37 30" fill="none" xmlns="http://www.w3.org/2000/svg">
<g filter="url(#filter0_d_321_1071)">
<path d="M13.9975 9.06628C13.9975 8.4766 13.6212 8.03434 13.245 8.03434H12.4924C12.0409 8.03434 11.7399 8.4766 11.7399 9.06628V11.941C11.7399 12.5307 12.1161 12.9729 12.4924 12.9729H13.245C13.6965 12.9729 13.9975 12.5307 13.9975 11.941V9.06628ZM13.9975 16.5847C13.9975 15.995 13.6212 15.5528 13.245 15.5528H12.4924C12.0409 15.5528 11.7399 15.995 11.7399 16.5847V19.4594C11.7399 20.0491 12.1161 20.4913 12.4924 20.4913H13.245C13.6965 20.4913 13.9975 20.0491 13.9975 19.4594V16.5847ZM20.018 16.5847C20.018 15.995 19.6417 15.5528 19.2654 15.5528H18.5128C18.0613 15.5528 17.7603 15.995 17.7603 16.5847V19.4594C17.7603 20.0491 18.1366 20.4913 18.5128 20.4913H19.2654C19.7169 20.4913 20.018 20.0491 20.018 19.4594V16.5847ZM20.018 9.06628C20.018 8.4766 19.6417 8.03434 19.2654 8.03434H18.5128C18.0613 8.03434 17.7603 8.4766 17.7603 9.06628V11.941C17.7603 12.5307 18.1366 12.9729 18.5128 12.9729H19.2654C19.7169 12.9729 20.018 12.5307 20.018 11.941V9.06628ZM34.3165 27.9361H30.5537V15.4053C30.5537 14.3734 30.1022 13.9311 29.0486 13.9311H25.2858V2.87463C25.2858 1.76898 24.0817 0.66333 23.0282 0.66333H7.97709C6.92351 0.66333 5.71943 1.84269 5.71943 2.87463V27.199C5.71943 27.5675 5.49366 27.9361 4.96687 27.9361H2.70921C1.80614 27.9361 1.2041 27.7886 1.2041 28.6732C1.2041 29.5577 1.8814 29.3365 2.78447 29.3365H34.2412C35.1443 29.3365 35.8216 29.4103 35.8216 28.6732C35.8216 27.8623 35.2195 27.9361 34.3165 27.9361ZM25.2858 16.8795C25.2858 16.2162 26.1136 15.4053 26.7909 15.4053H27.5435C28.6723 15.4053 29.0486 16.8795 29.0486 16.8795V26.4619C29.0486 27.0515 28.296 27.9361 27.5435 27.9361H26.7909C25.8126 27.9361 25.2858 27.1252 25.2858 26.4619V16.8795ZM7.22453 3.61173C7.22453 2.57979 7.67607 2.13753 8.72964 2.13753H22.2756C23.2539 2.13753 23.7807 2.80092 23.7807 3.61173V26.4619C23.7807 27.1252 22.9529 27.9361 22.2756 27.9361H8.72964C7.97709 27.9361 7.22453 27.199 7.22453 26.4619V3.61173Z"/>
</g>
<defs>
<filter id="filter0_d_321_1071" x="-2.7959" y="0.66333" width="42.6174" height="36.6978" filterUnits="userSpaceOnUse" color-interpolation-filters="sRGB">
<feFlood flood-opacity="0" result="BackgroundImageFix"/>
<feColorMatrix in="SourceAlpha" type="matrix" values="0 0 0 0 0 0 0 0 0 0 0 0 0 0 0 0 0 0 127 0" result="hardAlpha"/>
<feOffset dy="4"/>
<feGaussianBlur stdDeviation="2"/>
<feComposite in2="hardAlpha" operator="out"/>
<feColorMatrix type="matrix" values="0 0 0 0 0 0 0 0 0 0 0 0 0 0 0 0 0 0 0.25 0"/>
<feBlend mode="normal" in2="BackgroundImageFix" result="effect1_dropShadow_321_1071"/>
<feBlend mode="normal" in="SourceGraphic" in2="effect1_dropShadow_321_1071" result="shape"/>
</filter>
</defs>
</svg>
