<svg width="18" height="30" viewBox="0 0 18 30" fill="none" xmlns="http://www.w3.org/2000/svg">
<path d="M10 0.833253C11.0203 0.832449 12.0069 1.19874 12.7795 1.86522C13.552 2.53169 14.059 3.45387 14.2079 4.46327C14.3567 5.47268 14.1375 6.50195 13.5901 7.36305C13.0428 8.22415 12.204 8.85961 11.2268 9.15334L10.986 9.2185L14.4242 13.1498L17.0082 14.4403C17.335 14.5999 17.5879 14.879 17.7145 15.2199C17.8412 15.5607 17.8319 15.9372 17.6886 16.2714C17.5454 16.6057 17.2791 16.872 16.9449 17.0153C16.6107 17.1586 16.2342 17.1679 15.8933 17.0413L15.7417 16.9748L13.1577 15.6828C12.9113 15.5596 12.6841 15.4011 12.4834 15.2124L12.2922 15.0141L10.85 13.3665L9.915 17.1037C9.8305 17.4437 9.6835 17.7651 9.4815 18.0514L9.32567 18.2526L12.057 20.7502C12.4086 21.0711 12.6736 21.4755 12.8277 21.926L12.8942 22.1527L13.9397 26.3333H14.25C14.6111 26.3337 14.9584 26.4719 15.2209 26.7198C15.4835 26.9677 15.6415 27.3064 15.6627 27.6669C15.6838 28.0274 15.5665 28.3823 15.3348 28.6592C15.103 28.9361 14.7743 29.114 14.4157 29.1567L14.25 29.1666H12.9438C12.6266 29.1666 12.3169 29.0697 12.0561 28.889C11.7954 28.7082 11.596 28.4522 11.4847 28.1551L11.4322 27.9851L10.1459 22.8412L5.88175 18.9425C5.34624 18.6698 4.91123 18.234 4.63953 17.698C4.36784 17.162 4.27351 16.5535 4.37017 15.9604L4.41833 15.7295L5.14508 12.8225L4.6875 13.1483L2.71408 16.4378C2.52826 16.7481 2.2308 16.9755 1.88269 17.0736C1.53457 17.1716 1.16214 17.1328 0.841731 16.965C0.521319 16.7973 0.277185 16.5134 0.159358 16.1715C0.0415303 15.8295 0.0589324 15.4555 0.207998 15.126L0.284499 14.9787L2.25792 11.6906C2.41764 11.4242 2.62009 11.1858 2.85717 10.9851L3.04133 10.8434L6.95417 8.0455C6.37197 7.44654 5.97918 6.6893 5.82487 5.86839C5.67056 5.04748 5.76157 4.1993 6.08654 3.42982C6.4115 2.66033 6.956 2.00367 7.65202 1.54186C8.34804 1.08006 9.16471 0.833591 10 0.833253ZM6.19767 20.0305C6.37424 20.0893 6.53751 20.1822 6.67815 20.3041C6.81879 20.426 6.93404 20.5743 7.01731 20.7408C7.10059 20.9072 7.15026 21.0884 7.16349 21.274C7.17672 21.4596 7.15325 21.646 7.09442 21.8226L6.49092 23.6303C6.35193 24.0476 6.11766 24.4269 5.80667 24.7381L3.45925 27.0855C3.618 27.3852 3.66399 27.7318 3.58886 28.0625C3.51372 28.3932 3.32246 28.686 3.04981 28.8877C2.77716 29.0893 2.44122 29.1865 2.10302 29.1615C1.76482 29.1365 1.4468 28.991 1.20675 28.7515L0.508332 28.0531C0.240153 27.7848 0.0895021 27.4209 0.0895021 27.0416C0.0895021 26.6622 0.240153 26.2984 0.508332 26.0301L3.8035 22.7349L4.40558 20.9273C4.46433 20.7507 4.5573 20.5874 4.67917 20.4468C4.80104 20.3061 4.94942 20.1909 5.11584 20.1076C5.28226 20.0243 5.46346 19.9747 5.64908 19.9614C5.83471 19.9482 6.02112 19.9717 6.19767 20.0305Z" />
</svg>
